<svg width="80" height="80" viewBox="0 0 80 80" fill="none" xmlns="http://www.w3.org/2000/svg">
<rect width="80" height="80" rx="40" fill="#3C82F6"/>
<rect x="62.1503" y="9.92715" width="9.76437" height="9.76437" rx="1" transform="rotate(45 62.1503 9.92715)" stroke="#30DAFF" stroke-width="2"/>
<rect x="18.1783" y="54.5926" width="10.7424" height="10.7424" rx="2" transform="rotate(45 18.1783 54.5926)" stroke="#30DAFF" stroke-width="2"/>
<path d="M14.5 66L38.5 41.5001L59.5 20.0001" stroke="#30DAFF" stroke-width="2"/>
<path d="M47.6322 57.5914C48.09 58.4411 49.2406 58.6031 49.9151 57.9127L50.8996 56.905C51.2444 56.5522 51.383 56.0467 51.2665 55.5673L47.0207 38.0968C46.9042 37.6175 47.0429 37.112 47.3876 36.7591L54.8048 29.1677C56.0077 27.9365 55.9849 25.9716 54.7537 24.7687C53.5225 23.5657 51.5576 23.5885 50.3546 24.8197L42.9375 32.4111C42.5927 32.764 42.0906 32.9143 41.6086 32.809L24.0443 28.9698C23.5624 28.8645 23.0602 29.0149 22.7155 29.3677L21.7309 30.3754C21.0564 31.0657 21.245 32.2123 22.1052 32.6502L34.1271 38.7706C34.9873 39.2085 35.1759 40.355 34.5013 41.0454L28.3899 47.3004C28.0752 47.6225 27.6272 47.7776 27.1807 47.7191L23.4585 47.2314C23.012 47.1729 22.564 47.328 22.2493 47.6501L21.9007 48.0069C21.2365 48.6868 21.4076 49.8134 22.2438 50.2654L26.8568 52.7585C27.0918 52.8855 27.2866 53.0758 27.419 53.3078L30.0186 57.8617C30.4898 58.6871 31.6201 58.8321 32.2844 58.1522L32.6329 57.7955C32.9476 57.4734 33.0923 57.0219 33.0235 56.5769L32.4495 52.867C32.3806 52.422 32.5253 51.9705 32.84 51.6484L38.9515 45.3934C39.626 44.703 40.7766 44.865 41.2344 45.7147L47.6322 57.5914Z" fill="white"/>
</svg>
