<svg xmlns="http://www.w3.org/2000/svg" version="1.1" xmlns:xlink="http://www.w3.org/1999/xlink" width="128" height="128"><svg width="128" height="128" viewBox="0 0 128 128" fill="none" xmlns="http://www.w3.org/2000/svg">
<rect width="128" height="128" rx="16" fill="#3C82F6"></rect>
<rect width="128" height="128" rx="16" fill="url(#paint0_linear_1_2)"></rect>
<rect x="98" y="16" width="14.1422" height="14.1422" rx="3" transform="rotate(45 98 16)" fill="#30DAFF"></rect>
<rect x="28.5" y="83.8284" width="16.5061" height="16.5061" rx="4" transform="rotate(45 28.5 83.8284)" stroke="#30DAFF" stroke-width="4"></rect>
<path d="M27.9999 96L46 78L85.5 38.5L98.9999 25" stroke="#30DAFF" stroke-width="4"></path>
<path d="M76.771 88.8875C77.5112 90.3007 79.4096 90.5904 80.5376 89.4624L82.1841 87.8159C82.7605 87.2395 82.9994 86.4067 82.8161 85.6122L76.1344 56.6583C75.9511 55.8639 76.1899 55.0311 76.7664 54.4546L89.17 42.0511C91.1816 40.0394 91.1816 36.7917 89.17 34.78C87.1583 32.7684 83.9106 32.7684 81.8989 34.78L69.4954 47.1836C68.9189 47.7601 68.0861 47.9989 67.2916 47.8156L38.3377 41.1339C37.5433 40.9506 36.7105 41.1894 36.134 41.7659L34.4876 43.4123C33.3596 44.5403 33.6493 46.4388 35.0624 47.179L54.813 57.5245C56.2261 58.2647 56.5158 60.1631 55.3878 61.2911L45.1678 71.5111C44.6415 72.0374 43.8982 72.2852 43.1614 72.1799L37.0193 71.3025C36.2825 71.1972 35.5392 71.445 35.0129 71.9713L34.43 72.5542C33.3192 73.665 33.5804 75.5303 34.9537 76.2932L42.5294 80.5019C42.9154 80.7164 43.2336 81.0346 43.4481 81.4206L47.6568 88.9963C48.4197 90.3696 50.2849 90.6308 51.3958 89.52L51.9787 88.9371C52.505 88.4108 52.7528 87.6675 52.6475 86.9307L51.7701 80.7886C51.6648 80.0518 51.9126 79.3085 52.4389 78.7822L62.6589 68.5622C63.7869 67.4342 65.6853 67.7239 66.4255 69.137L76.771 88.8875Z" fill="white"></path>
<defs>
<linearGradient id="SvgjsLinearGradient1001" x1="64" y1="0" x2="64" y2="128" gradientUnits="userSpaceOnUse">
<stop stop-color="#3C82F6"></stop>
<stop offset="1" stop-color="#166EFF"></stop>
</linearGradient>
</defs>
</svg><style>@media (prefers-color-scheme: light) { :root { filter: none; } }
@media (prefers-color-scheme: dark) { :root { filter: none; } }
</style></svg>